G04 #@! TF.GenerationSoftware,KiCad,Pcbnew,9.0.7*
G04 #@! TF.CreationDate,2026-02-26T13:57:05-05:00*
G04 #@! TF.ProjectId,DC,44432e6b-6963-4616-945f-706362585858,rev?*
G04 #@! TF.SameCoordinates,Original*
G04 #@! TF.FileFunction,Soldermask,Bot*
G04 #@! TF.FilePolarity,Negative*
%FSLAX46Y46*%
G04 Gerber Fmt 4.6, Leading zero omitted, Abs format (unit mm)*
G04 Created by KiCad (PCBNEW 9.0.7) date 2026-02-26 13:57:05*
%MOMM*%
%LPD*%
G01*
G04 APERTURE LIST*
G04 Aperture macros list*
%AMRoundRect*
0 Rectangle with rounded corners*
0 $1 Rounding radius*
0 $2 $3 $4 $5 $6 $7 $8 $9 X,Y pos of 4 corners*
0 Add a 4 corners polygon primitive as box body*
4,1,4,$2,$3,$4,$5,$6,$7,$8,$9,$2,$3,0*
0 Add four circle primitives for the rounded corners*
1,1,$1+$1,$2,$3*
1,1,$1+$1,$4,$5*
1,1,$1+$1,$6,$7*
1,1,$1+$1,$8,$9*
0 Add four rect primitives between the rounded corners*
20,1,$1+$1,$2,$3,$4,$5,0*
20,1,$1+$1,$4,$5,$6,$7,0*
20,1,$1+$1,$6,$7,$8,$9,0*
20,1,$1+$1,$8,$9,$2,$3,0*%
G04 Aperture macros list end*
%ADD10C,2.100000*%
%ADD11C,3.000000*%
%ADD12R,8.000000X2.000000*%
%ADD13C,1.270000*%
%ADD14C,2.260600*%
%ADD15R,2.775000X2.775000*%
%ADD16C,2.775000*%
%ADD17C,4.500000*%
%ADD18O,2.540000X1.270000*%
%ADD19R,1.498600X1.498600*%
%ADD20C,1.498600*%
%ADD21C,1.574800*%
%ADD22C,3.200000*%
%ADD23RoundRect,0.102000X-0.762000X0.762000X-0.762000X-0.762000X0.762000X-0.762000X0.762000X0.762000X0*%
%ADD24C,1.728000*%
%ADD25R,0.855600X1.600000*%
%ADD26C,4.038600*%
%ADD27C,2.057400*%
%ADD28C,1.905000*%
G04 APERTURE END LIST*
D10*
X93000000Y-137500000D03*
X92300000Y-132500000D03*
X81700000Y-137500000D03*
X81000000Y-132500000D03*
X85730000Y-137500000D03*
X88270000Y-137500000D03*
X87000000Y-132500000D03*
D11*
X93250000Y-140540000D03*
X93250000Y-129540000D03*
X80750000Y-129540000D03*
X80750000Y-140540000D03*
D10*
X146625000Y-137460000D03*
X145925000Y-132460000D03*
X135325000Y-137460000D03*
X134625000Y-132460000D03*
X139355000Y-137460000D03*
X141895000Y-137460000D03*
X140625000Y-132460000D03*
D11*
X146875000Y-140500000D03*
X146875000Y-129500000D03*
X134375000Y-129500000D03*
X134375000Y-140500000D03*
D12*
X84000000Y-160315000D03*
X84000000Y-183685000D03*
X103000000Y-160315000D03*
X103000000Y-183685000D03*
D13*
X122332704Y-95149996D03*
X120332705Y-95149996D03*
X118332704Y-95149996D03*
X116332705Y-95149996D03*
X114332704Y-95149996D03*
X112332706Y-95149996D03*
X110332705Y-95149996D03*
X108332704Y-95149996D03*
D14*
X76832705Y-83499996D03*
X76782692Y-74999995D03*
D15*
X141000000Y-117200000D03*
D16*
X141000000Y-112500000D03*
X141000000Y-107800000D03*
X139410000Y-120375000D03*
X142590000Y-120375000D03*
X139410000Y-104625000D03*
X142590000Y-104625000D03*
D17*
X264000000Y-64000000D03*
D18*
X116830001Y-107799999D03*
X116830002Y-112500000D03*
X116830002Y-117200000D03*
X112000000Y-107799999D03*
X112000000Y-112500000D03*
X112000000Y-117200000D03*
D19*
X249810000Y-168190000D03*
D20*
X247270000Y-168190000D03*
X244730000Y-168190000D03*
X242190000Y-168190000D03*
X242190000Y-175810000D03*
X244730000Y-175810000D03*
X247270000Y-175810000D03*
X249810000Y-175810000D03*
D21*
X250500000Y-181000000D03*
X247960000Y-181000000D03*
D17*
X75500000Y-193000000D03*
D22*
X231000000Y-84000000D03*
X178930000Y-117020000D03*
X229730000Y-132260000D03*
D23*
X227190000Y-76380000D03*
D24*
X227190000Y-78920000D03*
X224650000Y-76380000D03*
X224650000Y-78920000D03*
X222110000Y-76380000D03*
X222110000Y-78920000D03*
X219570000Y-76380000D03*
X219570000Y-78920000D03*
X217030000Y-76380000D03*
X217030000Y-78920000D03*
X214490000Y-76380000D03*
X214490000Y-78920000D03*
X211950000Y-76380000D03*
X211950000Y-78920000D03*
X209410000Y-76380000D03*
X209410000Y-78920000D03*
X206870000Y-76380000D03*
X206870000Y-78920000D03*
X204330000Y-76380000D03*
X204330000Y-78920000D03*
X201790000Y-76380000D03*
X201790000Y-78920000D03*
X199250000Y-76380000D03*
X199250000Y-78920000D03*
X196710000Y-76380000D03*
X196710000Y-78920000D03*
X194170000Y-76380000D03*
X194170000Y-78920000D03*
X191630000Y-76380000D03*
X191630000Y-78920000D03*
X189090000Y-76380000D03*
X189090000Y-78920000D03*
X186550000Y-76380000D03*
X186550000Y-78920000D03*
X184010000Y-76380000D03*
X184010000Y-78920000D03*
X181470000Y-76380000D03*
X181470000Y-78920000D03*
X227190000Y-137340000D03*
X227190000Y-139880000D03*
X224650000Y-137340000D03*
X224650000Y-139880000D03*
X222110000Y-137340000D03*
X222110000Y-139880000D03*
X219570000Y-137340000D03*
X219570000Y-139880000D03*
X217030000Y-137340000D03*
X217030000Y-139880000D03*
X214490000Y-137340000D03*
X214490000Y-139880000D03*
X211950000Y-137340000D03*
X211950000Y-139880000D03*
X209410000Y-137340000D03*
X209410000Y-139880000D03*
X206870000Y-137340000D03*
X206870000Y-139880000D03*
X204330000Y-137340000D03*
X204330000Y-139880000D03*
X201790000Y-137340000D03*
X201790000Y-139880000D03*
X199250000Y-137340000D03*
X199250000Y-139880000D03*
X196710000Y-137340000D03*
X196710000Y-139880000D03*
X194170000Y-137340000D03*
X194170000Y-139880000D03*
X191630000Y-137340000D03*
X191630000Y-139880000D03*
X189090000Y-137340000D03*
X189090000Y-139880000D03*
X186550000Y-137340000D03*
X186550000Y-139880000D03*
X184010000Y-137340000D03*
X184010000Y-139880000D03*
X181470000Y-137340000D03*
X181470000Y-139880000D03*
D10*
X135000000Y-169000000D03*
X135700000Y-174000000D03*
X146300000Y-169000000D03*
X147000000Y-174000000D03*
X142270000Y-169000000D03*
X139730000Y-169000000D03*
X141000000Y-174000000D03*
D11*
X134750000Y-165960000D03*
X134750000Y-176960000D03*
X147250000Y-176960000D03*
X147250000Y-165960000D03*
D17*
X264000000Y-193000000D03*
D10*
X120125000Y-137460000D03*
X119425000Y-132460000D03*
X108825000Y-137460000D03*
X108125000Y-132460000D03*
X112855000Y-137460000D03*
X115395000Y-137460000D03*
X114125000Y-132460000D03*
D11*
X120375000Y-140500000D03*
X120375000Y-129500000D03*
X107875000Y-129500000D03*
X107875000Y-140500000D03*
D17*
X75500000Y-64000000D03*
D25*
X113444398Y-92500000D03*
X116500000Y-92500000D03*
D26*
X219000000Y-191500000D03*
X173499989Y-191500000D03*
D27*
X211999999Y-189039999D03*
X208499998Y-189039999D03*
X204999997Y-189039999D03*
X201499994Y-189039999D03*
X197999994Y-189039999D03*
X194499993Y-189039999D03*
X190999992Y-189039999D03*
X187499992Y-189039999D03*
X183999991Y-189039999D03*
X180499990Y-189039999D03*
X211999999Y-192540001D03*
X208499998Y-192540001D03*
X204999997Y-192540001D03*
X201499994Y-192540001D03*
X197999994Y-192540001D03*
X194499993Y-192540001D03*
X190999992Y-192540001D03*
X187499992Y-192540001D03*
X183999991Y-192540001D03*
X180499990Y-192540001D03*
D28*
X251573954Y-192000000D03*
X248073953Y-192000000D03*
X244573953Y-192000000D03*
X241073952Y-192000000D03*
D26*
X139000001Y-191500000D03*
X93499990Y-191500000D03*
D27*
X132000000Y-189039999D03*
X128499999Y-189039999D03*
X124999998Y-189039999D03*
X121499995Y-189039999D03*
X117999995Y-189039999D03*
X114499994Y-189039999D03*
X110999993Y-189039999D03*
X107499993Y-189039999D03*
X103999992Y-189039999D03*
X100499991Y-189039999D03*
X132000000Y-192540001D03*
X128499999Y-192540001D03*
X124999998Y-192540001D03*
X121499995Y-192540001D03*
X117999995Y-192540001D03*
X114499994Y-192540001D03*
X110999993Y-192540001D03*
X107499993Y-192540001D03*
X103999992Y-192540001D03*
X100499991Y-192540001D03*
D13*
X261500000Y-154000000D03*
X244500000Y-161500000D03*
X254500000Y-154000000D03*
X258000000Y-154000000D03*
M02*
